<svg width="512" height="512" viewBox="0 0 512 512" fill="none" xmlns="http://www.w3.org/2000/svg">
<path d="M104 496H72C65.6348 496 59.5303 493.471 55.0294 488.971C50.5286 484.47 48 478.365 48 472V328C48 321.635 50.5286 315.53 55.0294 311.029C59.5303 306.529 65.6348 304 72 304H104C110.365 304 116.47 306.529 120.971 311.029C125.471 315.53 128 321.635 128 328V472C128 478.365 125.471 484.47 120.971 488.971C116.47 493.471 110.365 496 104 496ZM328 496H296C289.635 496 283.53 493.471 279.029 488.971C274.529 484.47 272 478.365 272 472V232C272 225.635 274.529 219.53 279.029 215.029C283.53 210.529 289.635 208 296 208H328C334.365 208 340.47 210.529 344.971 215.029C349.471 219.53 352 225.635 352 232V472C352 478.365 349.471 484.47 344.971 488.971C340.47 493.471 334.365 496 328 496ZM440 496H408C401.635 496 395.53 493.471 391.029 488.971C386.529 484.47 384 478.365 384 472V120C384 113.635 386.529 107.53 391.029 103.029C395.53 98.5286 401.635 96 408 96H440C446.365 96 452.47 98.5286 456.971 103.029C461.471 107.53 464 113.635 464 120V472C464 478.365 461.471 484.47 456.971 488.971C452.47 493.471 446.365 496 440 496ZM216 496H184C177.635 496 171.53 493.471 167.029 488.971C162.529 484.47 160 478.365 160 472V40C160 33.6348 162.529 27.5303 167.029 23.0294C171.53 18.5286 177.635 16 184 16H216C222.365 16 228.47 18.5286 232.971 23.0294C237.471 27.5303 240 33.6348 240 40V472C240 478.365 237.471 484.47 232.971 488.971C228.47 493.471 222.365 496 216 496Z" fill="white"/>
</svg>
