<svg width="25" height="25" viewBox="0 0 25 25" fill="none" xmlns="http://www.w3.org/2000/svg">
<path d="M11.4797 4.37317H4.47968C3.94924 4.37317 3.44053 4.58388 3.06546 4.95896C2.69039 5.33403 2.47968 5.84274 2.47968 6.37317V20.3732C2.47968 20.9036 2.69039 21.4123 3.06546 21.7874C3.44053 22.1625 3.94924 22.3732 4.47968 22.3732H18.4797C19.0101 22.3732 19.5188 22.1625 19.8939 21.7874C20.269 21.4123 20.4797 20.9036 20.4797 20.3732V13.3732" stroke="white" stroke-width="2" stroke-linecap="round" stroke-linejoin="round"/>
<path d="M18.9797 2.87315C19.3775 2.47533 19.9171 2.25183 20.4797 2.25183C21.0423 2.25183 21.5819 2.47533 21.9797 2.87315C22.3775 3.27098 22.601 3.81054 22.601 4.37315C22.601 4.93576 22.3775 5.47533 21.9797 5.87315L12.4797 15.3732L8.47968 16.3732L9.47968 12.3732L18.9797 2.87315Z" stroke="white" stroke-width="2" stroke-linecap="round" stroke-linejoin="round"/>
</svg>
