<svg width="60" height="60" viewBox="0 0 60 60" fill="none" xmlns="http://www.w3.org/2000/svg">
<path d="M60 42.57C60 53.49 53.49 60 42.57 60H39C37.35 60 36 58.65 36 57V39.69C36 38.88 36.66 38.19 37.47 38.19L42.75 38.1C43.17 38.07 43.53 37.77 43.62 37.35L44.67 31.62C44.6904 31.4901 44.6824 31.3574 44.6465 31.2309C44.6106 31.1044 44.5477 30.9872 44.4622 30.8874C44.3766 30.7876 44.2704 30.7075 44.1509 30.6527C44.0314 30.5979 43.9015 30.5697 43.77 30.57L37.38 30.66C36.54 30.66 35.88 30 35.85 29.19L35.73 21.84C35.73 21.36 36.12 20.94 36.63 20.94L43.83 20.82C44.34 20.82 44.73 20.43 44.73 19.92L44.61 12.72C44.61 12.21 44.22 11.82 43.71 11.82L35.61 11.94C34.4276 11.958 33.2603 12.2091 32.1751 12.679C31.09 13.1489 30.1082 13.8283 29.286 14.6783C28.4639 15.5283 27.8176 16.5322 27.3841 17.6324C26.9506 18.7327 26.7385 19.9076 26.76 21.09L26.91 29.34C26.94 30.18 26.28 30.84 25.44 30.87L21.84 30.93C21.33 30.93 20.94 31.32 20.94 31.83L21.03 37.53C21.03 38.04 21.42 38.43 21.93 38.43L25.53 38.37C26.37 38.37 27.03 39.03 27.06 39.84L27.33 56.94C27.36 58.62 26.01 60 24.33 60H17.43C6.51 60 0 53.49 0 42.54V17.43C0 6.51 6.51 0 17.43 0H42.57C53.49 0 60 6.51 60 17.43V42.57Z" fill="white"/>
</svg>
