<svg width="61" height="61" viewBox="0 0 61 61" fill="none" xmlns="http://www.w3.org/2000/svg">
<path d="M43.2083 5.08337H17.7917C10.7731 5.08337 5.08334 10.7731 5.08334 17.7917V43.2084C5.08334 50.227 10.7731 55.9167 17.7917 55.9167H43.2083C50.227 55.9167 55.9167 50.227 55.9167 43.2084V17.7917C55.9167 10.7731 50.227 5.08337 43.2083 5.08337Z" stroke="white" stroke-width="4" stroke-linecap="round" stroke-linejoin="round"/>
<path d="M40.6667 28.8988C40.9803 31.0141 40.619 33.1744 39.6341 35.0725C38.6493 36.9706 37.0909 38.5099 35.1808 39.4713C33.2707 40.4327 31.1061 40.7673 28.9948 40.4276C26.8835 40.0879 24.9332 39.0911 23.4211 37.579C21.909 36.0669 20.9122 34.1165 20.5724 32.0052C20.2327 29.894 20.5673 27.7293 21.5288 25.8192C22.4902 23.9091 24.0294 22.3508 25.9275 21.3659C27.8256 20.381 29.986 20.0197 32.1013 20.3334C34.2589 20.6533 36.2565 21.6588 37.7989 23.2011C39.3413 24.7435 40.3467 26.7411 40.6667 28.8988Z" stroke="white" stroke-width="4" stroke-linecap="round" stroke-linejoin="round"/>
<path d="M44.4792 16.5209H44.5046" stroke="white" stroke-width="4" stroke-linecap="round" stroke-linejoin="round"/>
</svg>
