<svg width="61" height="61" viewBox="0 0 61 61" fill="none" xmlns="http://www.w3.org/2000/svg">
<path d="M40.23 20.6364C44.2082 20.6364 48.0235 22.2167 50.8366 25.0298C53.6496 27.8428 55.23 31.6581 55.23 35.6364V53.1364H45.23V35.6364C45.23 34.3103 44.7032 33.0385 43.7655 32.1008C42.8278 31.1631 41.5561 30.6364 40.23 30.6364C38.9039 30.6364 37.6321 31.1631 36.6944 32.1008C35.7568 33.0385 35.23 34.3103 35.23 35.6364V53.1364H25.23V35.6364C25.23 31.6581 26.8103 27.8428 29.6234 25.0298C32.4364 22.2167 36.2517 20.6364 40.23 20.6364V20.6364Z" stroke="white" stroke-width="4" stroke-linecap="round" stroke-linejoin="round"/>
<path d="M15.23 23.1364H5.22998V53.1364H15.23V23.1364Z" stroke="white" stroke-width="4" stroke-linecap="round" stroke-linejoin="round"/>
<path d="M10.23 15.6364C12.9914 15.6364 15.23 13.3978 15.23 10.6364C15.23 7.87493 12.9914 5.63635 10.23 5.63635C7.46856 5.63635 5.22998 7.87493 5.22998 10.6364C5.22998 13.3978 7.46856 15.6364 10.23 15.6364Z" stroke="white" stroke-width="4" stroke-linecap="round" stroke-linejoin="round"/>
</svg>
