<svg width="60" height="60" viewBox="0 0 60 60" fill="none" xmlns="http://www.w3.org/2000/svg">
<path d="M29.9481 0C14.161 0 1.2282 12.1418 0 27.5708L16.1071 34.2134C17.4715 33.2816 19.1214 32.7387 20.8945 32.7387C21.0545 32.7387 21.2123 32.743 21.368 32.7516L28.5318 22.3943V22.249C28.5318 16.0167 33.6154 10.945 39.8645 10.945C46.1136 10.945 51.1972 16.0167 51.1972 22.249C51.1972 28.4813 46.1136 33.5552 39.8645 33.5552C39.778 33.5552 39.6937 33.553 39.6072 33.5509L29.3902 40.8198C29.3967 40.9544 29.401 41.0891 29.401 41.2216C29.401 45.9022 25.5845 49.7087 20.8945 49.7087C16.7774 49.7087 13.3329 46.7763 12.5544 42.895L1.03359 38.1439C4.60141 50.726 16.1914 59.9505 29.9481 59.9505C46.5461 59.9505 60 46.5284 60 29.9752C60 13.4199 46.5461 0 29.9481 0ZM18.8325 45.4824L15.1414 43.9607C15.7944 45.32 16.9275 46.457 18.4303 47.0811C21.6781 48.4319 25.4232 46.8952 26.7768 43.6529C27.432 42.0842 27.4364 40.353 26.7877 38.7799C26.139 37.2069 24.9129 35.9801 23.3409 35.3261C21.7776 34.6785 20.1039 34.702 18.6336 35.2556L22.4479 36.8286C24.8437 37.8246 25.9768 40.5688 24.9778 42.9583C23.981 45.3478 21.2283 46.4784 18.8325 45.4824ZM47.4162 22.2492C47.4162 18.0965 44.0278 14.7153 39.8654 14.7153C35.7007 14.7153 32.3124 18.0965 32.3124 22.2492C32.3124 26.4019 35.7007 29.781 39.8654 29.781C44.0278 29.781 47.4162 26.4019 47.4162 22.2492ZM34.2044 22.2364C34.2044 19.1117 36.7451 16.579 39.8762 16.579C43.0094 16.579 45.5501 19.1117 45.5501 22.2364C45.5501 25.3611 43.0094 27.8937 39.8762 27.8937C36.7451 27.8937 34.2044 25.3611 34.2044 22.2364Z" fill="white"/>
</svg>
