<svg width="62" height="62" viewBox="0 0 62 62" fill="none" xmlns="http://www.w3.org/2000/svg">
<path d="M59.4167 7.74998C56.9428 9.49496 54.2038 10.8296 51.305 11.7025C49.7492 9.91355 47.6814 8.6456 45.3815 8.07012C43.0816 7.49464 40.6604 7.6394 38.4454 8.48481C36.2304 9.33023 34.3285 10.8355 32.9969 12.7971C31.6653 14.7586 30.9682 17.0818 31 19.4525V22.0358C26.4601 22.1535 21.9616 21.1467 17.9051 19.1049C13.8486 17.0631 10.36 14.0498 7.74999 10.3333C7.74999 10.3333 -2.58334 33.5833 20.6667 43.9166C15.3464 47.5281 9.00848 49.3389 2.58333 49.0833C25.8333 62 54.25 49.0833 54.25 19.375C54.2476 18.6554 54.1784 17.9376 54.0433 17.2308C56.6799 14.6307 58.5405 11.3478 59.4167 7.74998V7.74998Z" stroke="white" stroke-width="4" stroke-linecap="round" stroke-linejoin="round"/>
</svg>
