<svg width="29" height="29" viewBox="0 0 29 29" fill="none" xmlns="http://www.w3.org/2000/svg">
<path d="M14.2188 0C6.37861 0 0 6.37861 0 14.2188C0 22.0589 6.37861 28.4375 14.2188 28.4375C22.0589 28.4375 28.4375 22.0589 28.4375 14.2188C28.4375 6.37861 22.0589 0 14.2188 0ZM10.7857 7.98574C11.6519 7.06768 12.8707 6.5625 14.2188 6.5625C15.5668 6.5625 16.7747 7.07109 17.6442 7.99395C18.5254 8.9291 18.954 10.1855 18.8528 11.5363C18.6505 14.2188 16.5724 16.4062 14.2188 16.4062C11.8651 16.4062 9.78291 14.2188 9.58467 11.5356C9.48418 10.1739 9.91211 8.91338 10.7857 7.98574ZM14.2188 26.25C12.6126 26.2511 11.0226 25.9296 9.54308 25.3047C8.06352 24.6797 6.72451 23.764 5.60547 22.6119C6.24638 21.6979 7.063 20.9208 8.00762 20.326C9.7501 19.209 11.9554 18.5938 14.2188 18.5938C16.4821 18.5938 18.6874 19.209 20.4278 20.326C21.3732 20.9205 22.1906 21.6977 22.832 22.6119C21.7131 23.7642 20.3741 24.6799 18.8945 25.3049C17.4149 25.9298 15.8249 26.2512 14.2188 26.25Z" fill="#9CA3AF"/>
</svg>
